<?xml version="1.0" encoding="UTF-8"?>
<svg width="80px" height="80px" viewBox="0 0 80 80" version="1.1" xmlns="http://www.w3.org/2000/svg" xmlns:xlink="http://www.w3.org/1999/xlink">
    <!-- Generator: Sketch 56.3 (81716) - https://sketch.com -->
    <title>Instagram</title>
    <desc>Created with Sketch.</desc>
    <g id="Page-1" stroke="none" stroke-width="1" fill="none" fill-rule="evenodd">
        <g id="STYLE-Guide" transform="translate(-699.000000, -1403.000000)" fill="#000000">
            <g id="Instagram" transform="translate(699.000000, 1403.000000)">
                <path d="M72.9029167,57.9232348 C72.9029167,66.1829754 66.1829754,72.9019703 57.9232348,72.9019703 L22.076292,72.9019703 C13.8174978,72.9029167 7.09802971,66.1829754 7.09802971,57.9232348 L7.09802971,22.0772384 C7.09802971,13.817971 13.8174978,7.09802971 22.076292,7.09802971 L57.9227616,7.09802971 C66.1825022,7.09802971 72.9019703,13.817971 72.9019703,22.0772384 L72.9019703,57.9232348 L72.9029167,57.9232348 Z M57.9227616,0 L22.076292,0 C9.90364425,0 0,9.90411745 0,22.0772384 L0,57.9232348 C0,70.096829 9.90364425,80 22.076292,80 L57.9227616,80 C70.0963558,80 80,70.0963558 80,57.9232348 L80,22.0772384 C80.0009464,9.90411745 70.0963558,0 57.9227616,0 L57.9227616,0 Z" id="Fill-1"></path>
                <path d="M41.4814815,55.0799457 C33.9832393,55.0799457 27.8823772,48.9798958 27.8823772,41.4814815 C27.8823772,33.982591 33.9827632,27.8820651 41.4814815,27.8820651 C48.9801998,27.8820651 55.0805857,33.982591 55.0805857,41.4814815 C55.0805857,48.9798958 48.9801998,55.0799457 41.4814815,55.0799457 M41.4814815,20.7407407 C30.0448648,20.7407407 20.7407407,30.0450784 20.7407407,41.4819576 C20.7407407,52.9183607 30.0448648,62.2222222 41.4814815,62.2222222 C52.9180982,62.2222222 62.2222222,52.9183607 62.2222222,41.4819576 C62.2222222,30.0450784 52.9180982,20.7407407 41.4814815,20.7407407" id="Fill-3"></path>
                <path d="M60.7407407,14.8148148 C59.573064,14.8148148 58.4259933,15.2875421 57.6013468,16.1158249 C56.7726599,16.9400673 56.2962963,18.0875421 56.2962963,19.2592593 C56.2962963,20.4273401 56.773064,21.5744108 57.6013468,22.4026936 C58.4259933,23.226936 59.573064,23.7037037 60.7407407,23.7037037 C61.9124579,23.7037037 63.0558923,23.226936 63.8841751,22.4026936 C64.7124579,21.5744108 65.1851852,20.426936 65.1851852,19.2592593 C65.1851852,18.0875421 64.7124579,16.9400673 63.8841751,16.1158249 C63.0599327,15.2875421 61.9124579,14.8148148 60.7407407,14.8148148" id="Fill-5"></path>
            </g>
        </g>
    </g>
</svg>