<?xml version="1.0" encoding="utf-8"?>
<!-- Generator: Adobe Illustrator 22.0.0, SVG Export Plug-In . SVG Version: 6.00 Build 0)  -->
<svg version="1.1" id="Layer_1" xmlns="http://www.w3.org/2000/svg" xmlns:xlink="http://www.w3.org/1999/xlink" x="0px" y="0px"
	 viewBox="0 0 82 82" style="enable-background:new 0 0 82 82;" xml:space="preserve">
<style type="text/css">
	.st0{stroke:#000000;stroke-width:0.5;stroke-opacity:0.1;}
	.st1{stroke:#000000;stroke-opacity:0.1;}
	.st2{stroke:#EBF0FD;stroke-width:0.5;}
</style>
<title>noun_confidentiality_1326991</title>
<desc>Created with Sketch.</desc>
<g id="Page-1">
	<g id="STYLE-Guide" transform="translate(-1178.000000, -1105.000000)">
		<g id="noun_confidentiality_1326991" transform="translate(1179.000000, 1106.000000)">
			<g id="Group">
				<path id="Shape" class="st0" d="M78.8,51.2h-3.6v-6.1c0-5.6-4.7-10.1-10.4-9.6V18.4c0-0.5-0.1-0.8-0.5-1.1l-17.5-17l0,0
					C46.5,0.1,46.2,0,45.9,0H1.2C0.5,0,0,0.5,0,1.2v77.6C0,79.5,0.5,80,1.2,80h62.3c0.7,0,1.2-0.5,1.2-1.2v-4.1H76c2.2,0,4-1.8,4-4
					V52.4C80,51.6,79.5,51.2,78.8,51.2z M72.7,45.1v6.1H58.3v-6.1c0-4,3.3-7.3,7.3-7.3S72.7,41.1,72.7,45.1z M60.6,17.1H47.3v-13
					L60.6,17.1z M62.3,77.6H2.4V2.4h42.3v15.9c0,0.7,0.5,1.2,1.2,1.2h16.4V36c-4,1.5-6.4,5.1-6.4,9.1v6.1h-3.6
					c-0.7,0-1.2,0.5-1.2,1.2v18.3c0,2.2,1.8,4,4,4h7.4v2.9H62.3z M77.6,70.7c0,0.8-0.7,1.6-1.6,1.6H55c-0.8,0-1.6-0.7-1.6-1.6V53.6
					c9.1,0,15.2,0,24.1,0V70.7z"/>
				<path id="Shape_1_" class="st1" d="M64.2,66.2v1.9c0,0.7,0.5,1.2,1.2,1.2s1.2-0.5,1.2-1.2v-1.9c1.5-0.5,2.5-1.9,2.5-3.5
					c0-2.1-1.7-3.8-3.8-3.8c-2.1,0-3.8,1.7-3.8,3.8C61.8,64.2,62.8,65.7,64.2,66.2z M65.5,61.3c0.7,0,1.3,0.6,1.3,1.3
					c0,0.7-0.6,1.3-1.3,1.3s-1.3-0.6-1.3-1.3C64.2,61.9,64.7,61.3,65.5,61.3z"/>
				<path id="Shape_2_" class="st2" d="M8.1,19.5h30.8c0.7,0,1.2-0.5,1.2-1.2v-11c0-0.7-0.5-1.2-1.2-1.2H8.1c-0.7,0-1.2,0.5-1.2,1.2
					v11C6.9,18.9,7.5,19.5,8.1,19.5z M9.3,8.5h28.4v8.6H9.3V8.5z"/>
				<path id="Path" class="st0" d="M8.1,29.7h44.1c0.7,0,1.2-0.5,1.2-1.2c0-0.7-0.5-1.2-1.2-1.2H8.1c-0.7,0-1.2,0.5-1.2,1.2
					C6.9,29.2,7.5,29.7,8.1,29.7z"/>
				<path id="Path_1_" class="st0" d="M8.1,39.8h44.1c0.7,0,1.2-0.5,1.2-1.2c0-0.7-0.5-1.2-1.2-1.2H8.1c-0.7,0-1.2,0.5-1.2,1.2
					C6.9,39.2,7.5,39.8,8.1,39.8z"/>
				<path id="Path_2_" class="st0" d="M8.1,49.7h44.1c0.7,0,1.2-0.5,1.2-1.2s-0.5-1.2-1.2-1.2H8.1c-0.7,0-1.2,0.5-1.2,1.2
					S7.5,49.7,8.1,49.7z"/>
				<path id="Path_3_" class="st0" d="M46.2,57.3H8.1c-0.7,0-1.2,0.5-1.2,1.2c0,0.7,0.5,1.2,1.2,1.2h38.1c0.7,0,1.2-0.5,1.2-1.2
					C47.4,57.9,46.8,57.3,46.2,57.3z"/>
				<path id="Path_4_" class="st0" d="M46.2,67.4H8.1c-0.7,0-1.2,0.5-1.2,1.2c0,0.7,0.5,1.2,1.2,1.2h38.1c0.7,0,1.2-0.5,1.2-1.2
					C47.4,67.9,46.8,67.4,46.2,67.4z"/>
			</g>
		</g>
	</g>
</g>
</svg>
