<?xml version="1.0" encoding="UTF-8"?>
<svg width="80px" height="44px" viewBox="0 0 80 44" version="1.1" xmlns="http://www.w3.org/2000/svg" xmlns:xlink="http://www.w3.org/1999/xlink">
    <!-- Generator: Sketch 56.3 (81716) - https://sketch.com -->
    <title>MESSAGESENTICON</title>
    <desc>Created with Sketch.</desc>
    <g id="Page-1" stroke="none" stroke-width="1" fill="none" fill-rule="evenodd">
        <g id="STYLE-Guide" transform="translate(-701.000000, -1285.000000)" fill="#3965ED" fill-rule="nonzero">
            <g id="MESSAGESENTICON" transform="translate(701.000000, 1286.000000)">
                <path d="M68.4592697,12.9755859 L68.4592697,1.25976563 C68.4592697,1.25976563 68.4592697,1.15898438 68.4592697,1.10859375 C68.4664812,1.04159846 68.4664812,0.974026544 68.4592697,0.90703125 C68.4368259,0.813006726 68.3983451,0.72352236 68.3455056,0.642480469 L68.3455056,0.529101562 L68.2696629,0.529101562 L68.0674157,0.340136719 C68.0081481,0.292540909 67.9446881,0.250377432 67.877809,0.214160156 C67.8126807,0.183259976 67.745018,0.157972364 67.6755618,0.138574219 L67.2837079,0 L1.55337079,0 L1.2752809,0.0629882813 C1.20522839,0.0805261685 1.13738393,0.105881711 1.07303371,0.138574219 L0.858146067,0.277148438 L0.693820225,0.440917969 C0.693820225,0.440917969 0.630617978,0.440917969 0.605337079,0.516503906 C0.607445139,0.558469816 0.607445139,0.600514559 0.605337079,0.642480469 C0.566403199,0.715642475 0.532614061,0.791410656 0.504213483,0.869238281 C0.498271624,0.953118271 0.498271624,1.03731142 0.504213483,1.12119141 C0.504213483,1.12119141 0.365168539,1.25976563 0.365168539,1.25976563 L0.365168539,41.5722656 C0.365168539,41.5722656 0.365168539,41.6604492 0.365168539,41.6982422 C0.359167627,41.7863244 0.359167627,41.8747108 0.365168539,41.962793 C0.391200192,42.0375356 0.425096884,42.1093222 0.466292135,42.1769531 L0.529494382,42.3155273 C0.529494382,42.3155273 0.529494382,42.3155273 0.592696629,42.3155273 C0.677405641,42.4125504 0.775254845,42.4973486 0.883426966,42.5674805 L1.02247191,42.6556641 C1.20647109,42.7647083 1.41524408,42.8253942 1.62921348,42.8320313 L67.2205056,42.8320313 C67.395646,42.8231045 67.5673729,42.7803181 67.7261236,42.7060547 C67.7668374,42.6853067 67.8050114,42.6599435 67.8398876,42.6304687 C67.9590557,42.5601343 68.0658154,42.4707597 68.1558989,42.365918 L68.1558989,42.365918 C68.1558989,42.365918 68.1558989,42.290332 68.1558989,42.2525391 C68.2066439,42.1703985 68.2449764,42.0812589 68.2696629,41.9879883 C68.2817442,41.9213402 68.2817442,41.8530739 68.2696629,41.7864258 C68.2755163,41.7319918 68.2755163,41.6770902 68.2696629,41.6226562 L68.2696629,30.3855469 L78.8623596,22.6757813 C79.1806535,22.437869 79.3679775,22.0644892 79.3679775,21.6679688 C79.3679775,21.2714483 79.1806535,20.8980685 78.8623596,20.6601563 L68.4592697,12.9755859 Z M39.133427,22.978125 L63.2640449,40.3125 L5.54775281,40.3125 L29.6910112,22.978125 C29.826283,22.8820242 29.9385209,22.7572596 30.0196629,22.612793 L33.6853933,25.1323242 C33.8967473,25.2793523 34.1481499,25.3584739 34.4058989,25.359082 C34.6679582,25.3610657 34.9241576,25.2818247 35.1390449,25.1323242 L38.7921348,22.612793 C38.8818469,22.7548669 38.9976334,22.8788093 39.133427,22.978125 Z M2.89325843,3.69111328 L27.9213483,21.1514648 L2.89325843,39.0527344 L2.89325843,3.69111328 Z M34.4058989,22.5875977 L5.6488764,2.51953125 L63.1755618,2.51953125 L34.4058989,22.5875977 Z M65.9311798,39.0527344 L40.9030899,21.1514648 L65.9311798,3.69111328 L65.9311798,11.0985352 L65.5898876,10.846582 C65.2049691,10.560675 64.6907647,10.5167495 64.2626404,10.7332031 C63.8375679,10.9466707 63.5688584,11.3800194 63.5674157,11.8543945 L63.5674157,15.6336914 L52.1910112,15.6336914 C51.4928985,15.6336914 50.9269663,16.1977077 50.9269663,16.893457 L50.9269663,26.971582 C50.9269663,27.6673314 51.4928985,28.2313477 52.1910112,28.2313477 L63.5674157,28.2313477 L63.5674157,31.4941406 C63.5674157,32.18989 64.1333479,32.7539062 64.8314607,32.7539062 L64.8314607,32.7539062 C64.9152831,32.7661425 65.0004472,32.7661425 65.0842697,32.7539063 L65.1980337,32.7539063 C65.3190713,32.7102997 65.4338214,32.6510011 65.5393258,32.5775391 L65.880618,32.3255859 L65.9311798,39.0527344 Z" id="Shape" stroke="#FFFFFF" stroke-width="0.01"></path>
                <path d="M66.4494382,28.6722656 L66.4494382,28.6722656 L66.0955056,28.9746094 L66.0955056,26.9589844 C66.0955056,26.263235 65.5295734,25.6992187 64.8314607,25.6992187 L53.4550562,25.6992187 L53.4550562,18.140625 L64.8314607,18.140625 C65.5295734,18.140625 66.0955056,17.5766087 66.0955056,16.8808594 L66.0955056,14.3613281 L66.4367978,14.6132812 L66.4367978,14.6132812 L75.9676966,21.6805664 L66.4494382,28.6722656 Z" id="Path"></path>
            </g>
        </g>
    </g>
</svg>