<?xml version="1.0" encoding="UTF-8"?>
<svg width="68px" height="81px" viewBox="0 0 68 81" version="1.1" xmlns="http://www.w3.org/2000/svg" xmlns:xlink="http://www.w3.org/1999/xlink">
    <!-- Generator: Sketch 56.3 (81716) - https://sketch.com -->
    <title>EMPLOYER</title>
    <desc>Created with Sketch.</desc>
    <g id="Page-1" stroke="none" stroke-width="1" fill="none" fill-rule="evenodd">
        <g id="STYLE-Guide" transform="translate(-703.000000, -1112.000000)">
            <g id="EMPLOYER" transform="translate(704.000000, 1113.000000)">
                <path d="M42.3264959,35.1796918 L42.3264959,44.2058134 L59.4638366,53.8578058 C62.9600323,55.8272537 65.1176565,59.4918005 65.1176565,63.4607936 L65.1176565,77.8758865 L0,77.8758865 L0,63.7710279 C0,59.6102606 2.26192649,55.7686025 5.92702911,53.7042321 L22.791199,44.2058134 L22.791199,35.1796918" id="Path" stroke="#3965ED" stroke-width="1.9"></path>
                <path d="M26.6004932,4.08680176 C22.4735406,4.08680176 19.1511565,7.30799121 19.1511565,11.309011 L19.1511565,17.7290098 C19.1511565,17.7675962 19.1588201,17.7830307 19.1588201,17.8100412 C19.1586669,17.8486275 19.1511565,17.8640621 19.1511565,17.8910725 L19.1511565,26.5552541 C19.1511565,33.7577843 25.1340536,39.558472 32.5625451,39.558472 C39.9909984,39.558472 45.9738955,33.7577843 45.9738955,26.5552541 L45.9738955,17.8910725 C45.9738955,17.8524862 45.9662318,17.8370516 45.9662318,17.8100412 C45.9665384,17.7714548 45.9738955,17.7560203 45.9738955,17.7290098 L45.9738955,8.32435597 C45.3657848,3.85181082 43.1171548,0.661490461 38.5096913,0.682989721 C38.3671474,2.77447961 36.0733402,3.95676572 34.0288697,4.08680176 L26.6004932,4.08680176 Z" id="Path" stroke="#3965ED" stroke-width="1.9"></path>
                <path d="M19.544455,20.8008701 C21.163248,20.8008701 25.7124293,16.6269833 26.0979493,15.2085487 C30.6883227,23.0450528 41.7959797,15.2895801 45.5555368,21.7061061" id="Path" stroke="#3965ED" stroke-width="1.9" stroke-linecap="round" stroke-linejoin="round"></path>
                <path d="M32.5899427,79.2954787 L32.5899427,57.0369362 L29.0188731,53.6077662 L21.9441356,57.0705063 C20.7131618,57.6462148 19.3473076,56.6059265 19.5170575,55.2214479 L22.5825561,44.0317889 C23.6855087,47.4582578 26.2918396,50.9032482 28.9500152,53.6787651" id="Path" stroke="#3965ED" stroke-width="1.9"></path>
                <path d="M32.5588283,79.2557348 L32.5588283,57.0423382 L36.2915243,53.6204997 L43.6864874,57.0759084 C44.973176,57.6504593 46.4008375,56.6124862 46.2233856,55.2307086 C46.2233856,55.2307086 42.7647418,44.5905194 43.0190983,44.0638156 C41.3751686,46.6109013 40.2957434,50.238791 36.363486,53.5410118" id="Path" stroke="#3965ED" stroke-width="1.9"></path>
                <path d="M11.4874675,77.1458325 L11.4874675,66.6700213" id="Path" stroke="#3965ED" stroke-width="1.9"></path>
                <path d="M53.6375462,77.1458325 L53.6375462,66.6700213" id="Path" stroke="#3965ED" stroke-width="1.9"></path>
                <ellipse id="Oval" fill="#3965ED" fill-rule="nonzero" cx="40.2261575" cy="64.3293726" rx="1.95744211" ry="1.92937259"></ellipse>
                <ellipse id="Oval" fill="#3965ED" fill-rule="nonzero" cx="40.2261575" cy="72.0466449" rx="1.91593757" ry="1.88846333"></ellipse>
            </g>
        </g>
    </g>
</svg>