<?xml version="1.0" encoding="UTF-8"?>
<svg width="80px" height="65px" viewBox="0 0 80 65" version="1.1" xmlns="http://www.w3.org/2000/svg" xmlns:xlink="http://www.w3.org/1999/xlink">
    <!-- Generator: Sketch 56.3 (81716) - https://sketch.com -->
    <title>Twitter Icon</title>
    <desc>Created with Sketch.</desc>
    <defs>
        <polygon id="path-1" points="0 0 80 0 80 64.8065476 0 64.8065476"></polygon>
    </defs>
    <g id="Page-1" stroke="none" stroke-width="1" fill="none" fill-rule="evenodd">
        <g id="STYLE-Guide" transform="translate(-1055.000000, -1403.000000)">
            <g id="Twitter-Icon" transform="translate(1055.000000, 1403.000000)">
                <mask id="mask-2" fill="white">
                    <use xlink:href="#path-1"></use>
                </mask>
                <g id="Clip-2"></g>
                <path d="M80,7.66763433 C77.0555507,8.96879995 73.8961992,9.85123559 70.5767166,10.2451964 C73.9661339,8.22103059 76.560648,5.01041974 77.7903232,1.19648312 C74.6109716,3.07099073 71.1015541,4.43212391 67.3622016,5.16998559 C64.3678176,1.98427431 60.1085949,0 55.3844042,0 C46.3211214,0 38.972482,7.32868727 38.972482,16.3624086 C38.972482,17.6436285 39.1174495,18.894995 39.39745,20.0916085 C25.7600421,19.4084998 13.6673426,12.8925033 5.57386532,2.99120781 C4.15909176,5.40425015 3.35425385,8.21594638 3.35425385,11.2173226 C3.35425385,16.8958591 6.25373571,21.9062789 10.6529586,24.8376495 C7.9634117,24.7479589 5.43386509,24.0100972 3.21935167,22.7836303 L3.21935167,22.9880415 C3.21935167,30.9149703 8.87831516,37.5306955 16.3818568,39.0364026 C15.0070833,39.4053334 13.5574078,39.6097446 12.0576668,39.6097446 C10.9979265,39.6097446 9.97308819,39.5050621 8.96824995,39.3056048 C11.0577958,45.8116936 17.11676,50.5430035 24.2954645,50.6725856 C18.6814684,55.0598642 11.6027641,57.6672796 3.91425476,57.6672796 C2.58954671,57.6672796 1.28470798,57.5874967 0,57.4429227 C7.263672,62.0944497 15.8870848,64.8065476 25.1553352,64.8065476 C55.3446656,64.8065476 71.8466533,39.8690391 71.8466533,18.2420004 L71.7916206,16.1231902 C75.0159396,13.8296919 77.8053559,10.9481204 80,7.66763433" id="Fill-1" fill-opacity="0.85" fill="#000000" mask="url(#mask-2)"></path>
            </g>
        </g>
    </g>
</svg>