<?xml version="1.0" encoding="UTF-8"?>
<svg width="82px" height="81px" viewBox="0 0 82 81" version="1.1" xmlns="http://www.w3.org/2000/svg" xmlns:xlink="http://www.w3.org/1999/xlink">
    <!-- Generator: Sketch 56.3 (81716) - https://sketch.com -->
    <title>LOCATIONICON</title>
    <desc>Created with Sketch.</desc>
    <g id="Page-1" stroke="none" stroke-width="1" fill="none" fill-rule="evenodd">
        <g id="STYLE-Guide" transform="translate(-818.000000, -1248.000000)" fill="#3965ED" stroke="#FFFFFF" stroke-width="1.25">
            <g id="LOCATIONICON" transform="translate(818.000000, 1249.000000)">
                <g id="Group" transform="translate(0.000000, -0.000000)">
                    <path d="M40.993687,0.513278473 C27.8242963,0.513278473 17.1088032,11.2456816 17.1088032,24.4223542 C17.1088032,27.1647752 18.3328916,30.3432129 20.0834009,34.1137555 C21.8340056,37.8842218 24.1800637,42.1339058 26.6598009,46.3805367 C31.6192753,54.8738939 37.1538939,63.4283125 39.3096358,67.4881336 C39.6407736,68.1108234 40.2881962,68.4999368 40.9931149,68.4999368 C41.6980335,68.4999368 42.3454561,68.1108234 42.6765939,67.4881336 C44.837866,63.4264997 50.3749637,54.872749 55.3356777,46.3792964 C57.8160823,42.1326655 60.1622348,37.8827907 61.9129348,34.112229 C63.6637302,30.3416863 64.8878186,27.1632487 64.8878186,24.4208277 C64.8878186,11.244155 54.1719451,0.511751938 40.993687,0.511751938 L40.993687,0.513278473 Z M40.993687,4.32904472 C52.1104079,4.32904472 61.0741511,13.308031 61.0741511,24.4223542 C61.0741511,25.8254311 60.1172302,28.9247752 58.4544428,32.5058366 C56.7917497,36.0868026 54.4923172,40.2620871 52.043187,44.45548 C48.0844939,51.2331067 43.7629032,58.0082528 40.9949265,62.717424 C38.2297149,58.0074896 33.9102218,51.2332021 29.952673,44.4557662 C27.5040195,40.2623733 25.2047777,36.0868026 23.54218,32.5058366 C21.8795823,28.9247752 20.9224707,25.8254311 20.9224707,24.4223542 C20.9224707,13.308031 29.887359,4.32904472 40.993687,4.32904472 Z" id="Shape"></path>
                    <path d="M40.993687,8.40355874 C32.5642777,8.40355874 25.6806637,15.2812689 25.6806637,23.7258724 C25.6806637,32.1704758 32.5642777,39.0482051 40.993687,39.0482051 C49.4313916,39.0482051 56.315959,32.1704758 56.315959,23.7258724 C56.315959,15.2812689 49.4313916,8.40355874 40.993687,8.40355874 L40.993687,8.40355874 Z M40.993687,12.219325 C47.373287,12.219325 52.5022916,17.344 52.5022916,23.7258724 C52.5022916,30.1077448 47.373287,35.2324198 40.993687,35.2324198 C34.6250521,35.2324198 29.4943311,30.1077448 29.4943311,23.7258724 C29.4943311,17.344 34.6250521,12.219325 40.993687,12.219325 Z" id="Shape"></path>
                    <path d="M17.7139823,58.1991776 C17.1698009,58.1941867 16.6493779,58.4219968 16.2837497,58.8253309 L1.44508657,75.2237567 C0.939662302,75.7812914 0.809031615,76.5840465 1.11158075,77.2732255 C1.41412988,77.9624046 2.09331519,78.4092062 2.84557039,78.4140135 L40.8360753,78.4140135 L52.2779358,78.4140135 L52.4567149,78.4140135 L79.1246395,78.4140135 C79.8822905,78.4210159 80.5722637,77.9786068 80.8823882,77.2868656 C81.1925127,76.5951245 81.063952,75.7852874 80.554872,75.2237567 L65.7162093,58.8253309 C65.3505811,58.4219968 64.8301581,58.1941867 64.2859767,58.1991776 L51.8607846,58.1991776 C51.1784717,58.1977339 50.5473348,58.5610947 50.2057372,59.1521114 C49.8641396,59.7431281 49.8641396,60.4717317 50.2057372,61.0627484 C50.5473348,61.6537652 51.1784717,62.0171259 51.8607846,62.0155993 L63.4516744,62.0155993 L74.8339418,74.5975909 L52.426966,74.5975909 L52.2779358,74.5975909 L40.8063265,74.5975909 L7.16601719,74.5975909 L18.5482846,62.0155993 L30.1093311,62.0155993 C30.791644,62.0171259 31.4227809,61.6537652 31.7643786,61.0627484 C32.1059762,60.4717317 32.1059762,59.7431281 31.7643786,59.1521114 C31.4227809,58.5610947 30.791644,58.1977339 30.1093311,58.1991776 L17.7139823,58.1991776 L17.7139823,58.1991776 Z" id="Path"></path>
                </g>
            </g>
        </g>
    </g>
</svg>