<?xml version="1.0" encoding="UTF-8"?>
<svg width="80px" height="80px" viewBox="0 0 80 80" version="1.1" xmlns="http://www.w3.org/2000/svg" xmlns:xlink="http://www.w3.org/1999/xlink">
    <!-- Generator: Sketch 56.3 (81716) - https://sketch.com -->
    <title>CALLINFOICON</title>
    <desc>Created with Sketch.</desc>
    <g id="Page-1" stroke="none" stroke-width="1" fill="none" fill-rule="evenodd" stroke-opacity="0.1">
        <g id="STYLE-Guide" transform="translate(-952.000000, -1108.000000)" fill="#3965ED" fill-rule="nonzero" stroke="#000000">
            <g id="CALLINFOICON" transform="translate(951.000000, 1109.000000)">
                <g id="Group">
                    <g id="a-link">
                        <g id="a">
                            <path d="M31.5722645,12.1030997 L22.618899,3.14973426 C18.9352286,-0.538732558 15.2515583,-0.538732558 11.5678879,3.14973426 L11.5167258,3.14973426 L8.70281093,5.96364913 C8.68069398,6.00575126 8.64658592,6.03985932 8.60048675,6.0659733 L3.89357461,10.7728854 C-0.743389363,15.4819293 1.40541835,25.8337252 10.3399978,41.8282732 L10.3399978,41.7771111 C13.4026616,47.3311288 17.5126827,52.7031481 22.6700611,57.8931689 C27.4479873,62.6379197 32.5983042,66.5432925 38.1210118,69.6092872 L38.1210118,69.6092872 C54.1239535,78.5779747 64.4757494,80.7267824 69.1763995,76.0557104 L69.1763995,76.0557104 L73.8321496,71.3487982 C73.8933043,71.3358745 73.9444663,71.3017664 73.9856358,71.246474 L76.7995507,68.4325592 L76.7995507,68.4325592 C80.4880175,64.7488888 80.4880175,61.0652184 76.7995507,57.3815481 L67.8461852,48.4281826 C64.1625148,44.7397158 60.4788445,44.7397158 56.7951741,48.4281826 L56.744012,48.4281826 L50.7068856,54.465309 C39.7715221,49.3012689 31.3809396,40.8765784 25.535138,29.1912373 L31.5722645,23.1541109 L31.5722645,23.1541109 C35.2607313,19.4704405 35.2607313,15.7867701 31.5722645,12.1030997 L31.5722645,12.1030997 Z M21.1863605,4.58227274 L30.139726,13.5356382 C32.8635743,16.2642829 32.8635743,18.9929277 30.139726,21.7215724 L30.139726,21.6704103 L28.0420804,23.819218 L10.9027807,6.67991836 L13.0004264,4.58227274 L13.0004264,4.58227274 C15.7290711,1.85842446 18.4577158,1.85842446 21.1863605,4.58227274 L21.1863605,4.58227274 Z M5.37727518,12.2054239 L5.37727518,12.2054239 L9.47024226,8.11245684 L26.6095419,25.2517565 L23.5909787,28.2191576 C23.4373592,28.3926291 23.335035,28.5802234 23.2840061,28.7819406 C23.2592245,29.0128362 23.2933326,29.2174845 23.3863303,29.3958857 C29.5656181,42.1264522 38.6042537,51.1991959 50.5022372,56.6141167 C50.7175443,56.704583 50.9221927,56.7216371 51.1161823,56.6652788 C51.3501423,56.646093 51.5377366,56.5608229 51.6789653,56.4094684 L54.6975285,53.3909052 L71.8368281,70.5302048 L67.743861,74.6231719 C63.487948,78.3949103 53.9547456,76.1267244 39.1442536,67.8186141 L39.0930915,67.8186141 C33.7353283,64.8474824 28.7384977,61.0614879 24.1025996,56.4606305 C19.0957763,51.4179671 15.1051334,46.1994341 12.1306709,40.8050314 L12.1306709,40.8050314 C3.83908166,25.9714898 1.58794976,16.4382873 5.37727518,12.2054239 L5.37727518,12.2054239 Z M75.3670122,58.8140865 C78.0908605,61.5427313 78.0908605,64.271376 75.3670122,67.0000207 L75.3670122,66.9488586 L73.2693666,69.0976663 L56.130067,51.9583667 L58.2277126,49.860721 L58.2277126,49.860721 C60.9563573,47.1368728 63.685002,47.1368728 66.4136467,49.860721 L75.3670122,58.8140865 L75.3670122,58.8140865 Z M79.306493,5.86132495 C79.306493,2.45051905 77.6010901,0.7451161 74.1902842,0.7451161 L47.5859982,0.7451161 C44.1751923,0.7451161 42.4697893,2.45051905 42.4697893,5.86132495 L42.4697893,30.163317 C42.4697893,33.5741229 44.1751923,35.2795258 47.5859982,35.2795258 L55.6184461,35.2795258 L60.0183857,41.725949 C60.1634782,41.929265 60.3340185,42.0656972 60.5300066,42.1352457 C60.7679636,42.208658 60.989666,42.208658 61.1951137,42.1352457 C61.4272084,42.0563708 61.5977487,41.9199386 61.7067346,41.725949 L66.1066742,35.2795258 L74.1902842,35.2795258 C77.6010901,35.2795258 79.306493,33.5741229 79.306493,30.163317 L79.306493,5.86132495 L79.306493,5.86132495 Z M74.1902842,2.79159964 C76.2367677,2.79159964 77.2600095,3.81484141 77.2600095,5.86132495 L77.2600095,30.163317 C77.2600095,32.2098005 76.2367677,33.2330423 74.1902842,33.2330423 L65.5950533,33.2330423 C65.4243798,33.235707 65.2538395,33.269815 65.0834324,33.3353665 C64.9540616,33.4330274 64.8346834,33.5524056 64.7252978,33.6935011 L60.8881412,39.3213308 L56.9998225,33.642339 C56.924012,33.5270911 56.8046338,33.4247669 56.6416878,33.3353665 C56.5057885,33.270348 56.3523023,33.2362399 56.181229,33.2330423 L47.5859982,33.2330423 C45.5395146,33.2330423 44.5162729,32.2098005 44.5162729,30.163317 L44.5162729,5.86132495 C44.5162729,3.81484141 45.5395146,2.79159964 47.5859982,2.79159964 L74.1902842,2.79159964 L74.1902842,2.79159964 Z M61.0927895,10.0054541 C60.7176009,10.0054541 60.3935743,10.1418864 60.1207099,10.4147508 C59.8478454,10.6535072 59.7114132,10.9775338 59.7114132,11.3868305 C59.7114132,11.7620192 59.8478454,12.0689917 60.1207099,12.3077481 C60.3935743,12.5806126 60.7176009,12.7170448 61.0927895,12.7170448 C61.4679782,12.7170448 61.7920047,12.5806126 62.0648692,12.3077481 C62.3036256,12.0689917 62.4230038,11.7620192 62.4230038,11.3868305 C62.4230038,10.9775338 62.3036256,10.6535072 62.0648692,10.4147508 C61.7920047,10.1418864 61.4679782,10.0054541 61.0927895,10.0054541 L61.0927895,10.0054541 Z M61.911383,15.3263113 C61.9089847,15.0461189 61.8066606,14.8073625 61.6044104,14.6100421 C61.40709,14.4077919 61.1683336,14.3054678 60.8881412,14.3030695 C60.6079488,14.3054678 60.3691924,14.4077919 60.1718719,14.6100421 C59.9696218,14.8073625 59.8672976,15.0461189 59.8648994,15.3263113 L59.8648994,28.1168334 C59.8672976,28.3970258 59.9696218,28.6357822 60.1718719,28.8331027 C60.3691924,29.0353528 60.6079488,29.137677 60.8881412,29.1400752 C61.1683336,29.137677 61.40709,29.0353528 61.6044104,28.8331027 C61.8066606,28.6357822 61.9089847,28.3970258 61.911383,28.1168334 L61.911383,15.3263113 Z" id="Shape"></path>
                        </g>
                    </g>
                </g>
            </g>
        </g>
    </g>
</svg>