<?xml version="1.0" encoding="UTF-8"?>
<svg width="80px" height="80px" viewBox="0 0 80 80" version="1.1" xmlns="http://www.w3.org/2000/svg" xmlns:xlink="http://www.w3.org/1999/xlink">
    <!-- Generator: Sketch 56.3 (81716) - https://sketch.com -->
    <title>Linked In</title>
    <desc>Created with Sketch.</desc>
    <g id="Page-1" stroke="none" stroke-width="1" fill="none" fill-rule="evenodd" fill-opacity="0.85">
        <g id="STYLE-Guide" transform="translate(-821.000000, -1403.000000)" fill="#000000">
            <path d="M886,1403 L836,1403 C827.715,1403 821,1409.715 821,1418 L821,1468 C821,1476.285 827.715,1483 836,1483 L886,1483 C894.285,1483 901,1476.285 901,1468 L901,1418 C901,1409.715 894.285,1403 886,1403 L886,1403 Z M851,1462.375 L841,1462.375 L841,1427.375 L851,1427.375 L851,1462.375 L851,1462.375 Z M846.31,1425.23 C843.72,1425.23 841.625,1423.13 841.625,1420.54 C841.625,1417.95 843.725,1415.85 846.31,1415.85 C848.9,1415.855 851,1417.955 851,1420.54 C851,1423.13 848.9,1425.23 846.31,1425.23 L846.31,1425.23 Z M886,1462.375 L876,1462.375 L876,1440.735 C876,1438.2 875.275,1436.425 872.16,1436.425 C866.995,1436.425 866,1440.735 866,1440.735 L866,1462.375 L856,1462.375 L856,1427.375 L866,1427.375 L866,1430.72 C867.43,1429.625 871,1427.38 876,1427.38 C879.245,1427.38 886,1429.32 886,1441.04 L886,1462.375 L886,1462.375 Z" id="Linked-In"></path>
        </g>
    </g>
</svg>