<?xml version="1.0" encoding="UTF-8"?>
<svg width="119px" height="79px" viewBox="0 0 119 79" version="1.1" xmlns="http://www.w3.org/2000/svg" xmlns:xlink="http://www.w3.org/1999/xlink">
    <!-- Generator: Sketch 56.3 (81716) - https://sketch.com -->
    <title>employees icon</title>
    <desc>Created with Sketch.</desc>
    <g id="Page-1" stroke="none" stroke-width="1" fill="none" fill-rule="evenodd">
        <g id="STYLE-Guide" transform="translate(-807.000000, -1112.000000)">
            <g id="employees-icon" transform="translate(807.000000, 1113.000000)">
                <g id="Group">
                    <g transform="translate(0.656569, 0.092972)">
                        <path d="M78.9825548,49.605624 L78.9825548,23.2537872 C78.9825548,14.8987051 85.6550951,8.1721944 93.9433573,8.1721944 C95.8926951,8.1721944 97.7525618,8.54292611 99.457268,9.22234871 C99.7621212,9.34340396 100.062218,9.47580814 100.356922,9.61388678 C100.690987,9.7727718 101.018349,9.94678873 101.33822,10.127615 C105.863755,12.7155493 108.904197,17.6129908 108.904197,23.2530306 L108.904197,54.4519953" id="Path" stroke="#3965ED" stroke-width="1.9"></path>
                        <path d="M99.5229201,40.1156489 L99.5229201,46.1532795 C99.5229201,48.0894069 100.53298,49.8798898 102.176791,50.8585458 L111.537395,56.4308704 C112.069877,56.7486404 112.929121,57.2748524 113.394565,57.6856837 C115.248927,59.3233343 116.370367,61.8514975 116.402912,64.5695662 C116.403629,64.6376598 116.403629,64.7473661 116.403629,64.8116767 L116.403629,76.2283218 L90.1672596,76.2283218 M83.6080844,52.0838519 L84.5469124,51.524728 C86.8847695,50.1325926 88.321175,47.5855145 88.321175,44.8322641 L88.321175,40.1141357" id="Shape" stroke="#3965ED" stroke-width="1.9"></path>
                        <path d="M97.2758823,23.616953 C96.7107428,23.1141954 95.9191731,23.1141954 95.3539962,23.616953 C93.5897425,25.1849968 89.0477667,24.5543746 86.5017556,24.5543746 L86.4362159,25.2776797 L86.4362159,28.1016718 C86.4362159,28.1395015 86.4386876,28.1395015 86.4386876,28.1546334 C86.4386127,28.1924632 86.4362159,28.1924632 86.4362159,28.2075951 L86.4362159,33.9785259 C86.4362159,38.7760968 89.7780662,43.9943348 93.9274405,43.9943348 C98.0767773,43.9943348 101.418665,38.7760968 101.418665,33.9785259 L101.418665,28.2075951 C101.418665,28.1697653 101.416193,28.1697653 101.416193,28.1546334 C101.416343,28.1168037 101.418665,28.1168037 101.418665,28.1016718 L101.40743,25.5742651 C99.8883694,25.1672168 98.4148124,24.6315473 97.274534,23.616953 L97.2758823,23.616953 Z" id="Path" stroke="#3965ED" stroke-width="1.9" stroke-linecap="round" stroke-linejoin="round"></path>
                        <path d="M109.381476,76.229835 L109.381476,70.5213233" id="Path" stroke="#3965ED" stroke-width="1.9"></path>
                        <path d="M105.379323,53.3954099 C105.379323,57.1092729 103.601529,60.5910443 100.613351,62.7295264 C97.6251458,64.8680128 93.800013,65.3959096 90.3587479,64.144738" id="Path" stroke="#3965ED" stroke-width="1.9" stroke-linecap="round" stroke-linejoin="round"></path>
                        <path d="M7.81550891,54.4531302 L7.81550891,23.2579485 C7.81550891,14.9040013 14.4429578,8.17862546 22.6752304,8.17862546 C24.6113105,8.17862546 26.458631,8.54935717 28.1518023,9.22802317 C28.4547829,9.34907842 28.7526702,9.4814826 29.0453517,9.62069614 C29.3771698,9.77958116 29.7023216,9.94981511 30.0200206,10.1344244 C34.5149576,12.7216021 37.5349145,17.6186653 37.5349145,23.2579485 L37.5349145,49.6048674" id="Path" stroke="#3965ED" stroke-width="1.9"></path>
                        <path d="M28.3574845,39.3586752 L28.3574845,46.1532795 C28.3574845,48.0894069 29.3675449,49.8798898 31.0113553,50.8585458 L32.9184107,51.9938171 M26.2197669,76.2283218 L0.296103884,76.2283218 L0.296103884,66.2249968 C0.296103884,65.5141755 0.288780491,64.359611 0.374169351,63.6548425 C0.634081057,61.5246484 1.53392235,59.5699843 2.90579925,58.1211043 C3.64085502,57.3448375 5.13014161,56.438058 6.04691087,55.8917962 L13.3814769,51.524728 C15.719334,50.1325926 17.1557394,47.5855145 17.1557394,44.8322641 L17.1557394,39.357162" id="Shape" stroke="#3965ED" stroke-width="1.9"></path>
                        <path d="M26.1204837,22.9265598 C25.5549697,22.4234239 24.7629131,22.4234239 24.1973243,22.9265598 C22.4319471,24.496495 17.8870126,23.8651163 15.3393161,23.8651163 L15.2737764,24.5884214 L15.2737764,27.4143049 C15.2737764,27.4521347 15.2763231,27.4521347 15.2763231,27.4672666 C15.2762108,27.5050963 15.2737764,27.5050963 15.2737764,27.5202282 L15.2737764,33.2945637 C15.2737764,38.0955393 18.6178738,43.3168037 22.7699072,43.3168037 C26.921978,43.3168037 30.2660379,38.0955393 30.2660379,33.2945637 L30.2660379,27.5202282 C30.2660379,27.4823985 30.2635661,27.4823985 30.2635661,27.4672666 C30.2637159,27.4294368 30.2660379,27.4294368 30.2660379,27.4143049 L30.2548025,24.8857633 C28.734731,24.4779585 27.2602002,23.9419107 26.1192103,22.9265598 L26.1204837,22.9265598 Z" id="Path" stroke="#3965ED" stroke-width="1.9" stroke-linecap="round" stroke-linejoin="round"></path>
                        <path d="M7.31845586,76.229835 L7.31845586,70.5213233" id="Path" stroke="#3965ED" stroke-width="1.9"></path>
                        <path d="M26.1263635,64.3550715 C22.656467,65.3841936 18.911214,64.654096 16.0624624,62.3932198 C13.2136689,60.1322526 11.6094124,56.6166159 11.7516732,52.9463706" id="Path" stroke="#3965ED" stroke-width="1.9" stroke-linecap="round" stroke-linejoin="round"></path>
                        <path d="M67.8917403,34.4162163 L67.8917403,43.2653552 L84.641327,52.7280929 C88.058417,54.6589241 90.1672222,58.251617 90.1672222,62.1427867 L90.1672222,76.2752307 L26.5229348,76.2752307 L26.5229348,62.4469381 C26.5229348,58.3677544 28.7336824,54.6014229 32.3158574,52.5775304 L48.7984541,43.2653552 L48.7984541,34.4162163" id="Path" stroke="#3965ED" stroke-width="1.9"></path>
                        <path d="M52.5215582,3.93299082 C48.4879832,3.93299082 45.2407722,7.09101969 45.2407722,11.0135881 L45.2407722,17.3077046 C45.2407722,17.3455344 45.2482625,17.3606663 45.2482625,17.3871471 C45.2481127,17.4249769 45.2407722,17.4401088 45.2407722,17.4665896 L45.2407722,25.9608853 C45.2407722,33.0221894 51.0882987,38.7091382 58.3487113,38.7091382 C65.6090864,38.7091382 71.4566129,33.0221894 71.4566129,25.9608853 L71.4566129,17.4665896 C71.4566129,17.4287599 71.4491227,17.4136279 71.4491227,17.3871471 C71.4494223,17.3493173 71.4566129,17.3341854 71.4566129,17.3077046 L71.4566129,8.08745572 C70.8622615,3.70260754 68.6645095,0.574842484 64.1612958,0.595920191 C64.0219771,2.64640047 61.7800701,3.80550451 59.7818584,3.93299082 L52.5215582,3.93299082 Z" id="Path" stroke="#3965ED" stroke-width="1.9"></path>
                        <path d="M45.6251719,20.3193323 C47.2073376,20.3193323 51.653588,16.2272865 52.030385,14.8366643 C56.5168955,22.5195115 67.3732277,14.9161068 71.0477201,21.2068186" id="Path" stroke="#3965ED" stroke-width="1.9" stroke-linecap="round" stroke-linejoin="round"></path>
                        <path d="M58.3754889,77.6669878 L58.3754889,55.8448873 L54.8852193,52.482956 L47.9705567,55.8777992 C46.7674352,56.4422193 45.4324852,55.4223288 45.5983942,54.0649968 L48.5945321,43.0947429 C49.672529,46.4540262 52.2198884,49.8314677 54.8179194,52.5525627" id="Path" stroke="#3965ED" stroke-width="1.9"></path>
                        <path d="M58.3450785,77.6280232 L58.3450785,55.8501834 L61.9933176,52.4954398 L69.2209603,55.8830953 C70.4785359,56.4463806 71.8738948,55.4287599 71.700458,54.0740759 C71.700458,54.0740759 68.3200703,43.6425179 68.5686718,43.1261416 C66.961938,45.6232845 65.9069362,49.1800391 62.063651,52.4175105" id="Path" stroke="#3965ED" stroke-width="1.9"></path>
                        <path d="M37.7504839,75.5594916 L37.7504839,65.2890884" id="Path" stroke="#3965ED" stroke-width="1.9"></path>
                        <path d="M78.9468638,75.5594916 L78.9468638,65.2890884" id="Path" stroke="#3965ED" stroke-width="1.9"></path>
                        <ellipse id="Oval" fill="#3965ED" fill-rule="nonzero" cx="65.8389247" cy="62.9943348" rx="1.91315251" ry="1.89154176"></ellipse>
                        <ellipse id="Oval" fill="#3965ED" fill-rule="nonzero" cx="65.8389247" cy="70.560288" rx="1.87258707" ry="1.85143464"></ellipse>
                    </g>
                </g>
            </g>
        </g>
    </g>
</svg>