<?xml version="1.0" encoding="UTF-8"?>
<svg width="73px" height="57px" viewBox="0 0 73 57" version="1.1" xmlns="http://www.w3.org/2000/svg" xmlns:xlink="http://www.w3.org/1999/xlink">
    <!-- Generator: Sketch 56.3 (81716) - https://sketch.com -->
    <title>noun_Key_596098</title>
    <desc>Created with Sketch.</desc>
    <g id="Page-1" stroke="none" stroke-width="1" fill="none" fill-rule="evenodd">
        <g id="STYLE-Guide" transform="translate(-1184.000000, -1266.000000)" fill="#3965ED" fill-rule="nonzero" stroke="#FFFFFF">
            <g id="noun_Key_596098" transform="translate(1221.718727, 1292.673443) rotate(-30.000000) translate(-1221.718727, -1292.673443) translate(1181.218727, 1272.673443)">
                <g id="Group" transform="translate(0.380952, 0.455677)">
                    <path d="M22.6381495,16.4209972 C23.410213,17.182902 24.5683082,17.182902 25.3403717,16.4209972 C26.1124352,15.6590925 26.1124352,14.5162353 25.3403717,13.7543306 C23.7962447,12.2305211 21.6730701,11.4686163 19.5498955,11.4686163 C17.4267209,11.4686163 15.3035463,12.2305211 13.7594193,13.7543306 C12.2152924,15.2781401 11.4432289,17.3733782 11.4432289,19.4686163 C11.4432289,21.5638544 12.2152924,23.6590925 13.7594193,25.182902 C15.3035463,26.7067115 17.4267209,27.4686163 19.5498955,27.4686163 C21.6730701,27.4686163 23.7962447,26.7067115 25.3403717,25.182902 C26.1124352,24.4209972 26.1124352,23.2781401 25.3403717,22.5162353 C24.5683082,21.7543306 23.410213,21.7543306 22.6381495,22.5162353 C20.9010066,24.2305211 18.1987844,24.2305211 16.4616416,22.5162353 C15.6895781,21.7543306 15.1105305,20.6114734 15.1105305,19.4686163 C15.1105305,18.3257591 15.4965622,17.182902 16.4616416,16.4209972 C18.0057685,14.7067115 20.9010066,14.7067115 22.6381495,16.4209972 Z" id="Path"></path>
                    <path d="M78.6700342,18.2517896 L72.7973637,9.43502154 C72.4058523,8.847237 71.8185853,8.65130882 71.2313182,8.65130882 L34.4292497,8.65130882 C33.2547156,7.08388338 31.8844258,5.71238612 30.3183803,4.53681704 C30.3183803,4.53681704 30.3183803,4.34088886 30.1226246,4.34088886 C22.6839087,-1.14510017 12.5046131,-0.361387451 6.04467552,6.30017066 C-1.19828478,13.5495133 -1.19828478,25.3052041 6.04467552,32.5545468 C9.56827783,36.2771822 14.4621699,38.0405358 19.1603063,38.0405358 C23.8584428,38.0405358 28.7523348,36.2771822 32.2759372,32.5545468 C32.4716928,32.3586186 32.8632042,31.9667622 33.0589599,31.770834 C33.8419826,30.9871213 33.6462269,29.8115522 32.8632042,29.0278395 C32.0801815,28.2441268 30.9056474,28.440055 30.1226246,29.2237677 C29.926869,29.4196959 29.7311133,29.6156241 29.5353576,29.8115522 C23.8584428,35.4934695 14.4621699,35.4934695 8.7852551,29.8115522 C3.10834027,24.129635 3.10834027,14.7250824 8.7852551,9.04316518 C10.9385676,6.8879552 13.2876358,5.71238612 16.0282154,5.12460158 C16.0282154,5.12460158 16.0282154,5.12460158 16.0282154,5.12460158 C21.9008859,3.9490325 28.1650678,6.49609884 31.2971587,11.3943033 L31.4929144,11.5902315 C31.8844258,12.1780161 32.4716928,12.5698724 33.2547156,12.5698724 L70.0567841,12.5698724 L74.5591649,19.4273587 L70.0567841,26.0889168 C69.6652728,25.8929886 69.2737614,25.5011323 68.6864944,24.9133477 C67.7077159,23.7377787 66.3374261,22.3662814 63.5968466,22.3662814 C60.856267,22.3662814 59.4859772,23.9337068 58.5071988,24.9133477 C57.5284204,25.8929886 57.136909,26.284845 56.1581306,26.284845 C55.1793522,26.284845 54.7878408,25.8929886 53.8090624,24.9133477 C52.830284,23.7377787 51.4599942,22.3662814 48.7194146,22.3662814 C45.978835,22.3662814 44.6085452,23.9337068 43.6297668,24.9133477 C42.6509884,25.8929886 42.259477,26.284845 41.2806986,26.284845 C40.3019202,26.284845 39.9104088,25.8929886 38.9316304,24.9133477 C38.1486077,23.9337068 36.9740736,22.9540659 35.2122724,22.5622096 C34.233494,22.3662814 33.0589599,22.9540659 32.8632042,24.129635 C32.6674485,25.1092759 33.2547156,26.284845 34.4292497,26.4807732 C35.0165167,26.6767014 35.4080281,27.0685577 36.1910508,27.8522704 C37.1698293,29.0278395 38.540119,30.3993368 41.2806986,30.3993368 C44.0212782,30.3993368 45.391568,28.8319113 46.3703464,27.8522704 C47.3491248,26.8726295 47.7406362,26.4807732 48.7194146,26.4807732 C49.698193,26.4807732 50.0897044,26.8726295 51.0684828,27.8522704 C52.0472612,29.0278395 53.417551,30.3993368 56.1581306,30.3993368 C58.8987102,30.3993368 60.2689999,28.8319113 61.2477784,27.8522704 C62.2265568,26.8726295 62.6180682,26.4807732 63.5968466,26.4807732 C64.575625,26.4807732 64.9671364,26.8726295 65.9459148,27.8522704 C66.9246932,29.0278395 68.294983,30.3993368 71.0355626,30.3993368 C71.6228296,30.3993368 72.2100967,30.0074804 72.601608,29.6156241 L78.4742785,20.798856 C79.2573013,19.6232869 79.2573013,18.8395742 78.6700342,18.2517896 Z" id="Path"></path>
                </g>
            </g>
        </g>
    </g>
</svg>