<?xml version="1.0" encoding="utf-8"?>
<!-- Generator: Adobe Illustrator 22.0.0, SVG Export Plug-In . SVG Version: 6.00 Build 0)  -->
<svg version="1.1" id="Layer_1" xmlns="http://www.w3.org/2000/svg" xmlns:xlink="http://www.w3.org/1999/xlink" x="0px" y="0px"
	 viewBox="0 0 119 79" style="enable-background:new 0 0 119 79;" xml:space="preserve">
<style type="text/css">
	.st0{fill:none;stroke:#5A1933;stroke-width:1.9;}
	.st1{fill:none;stroke:#5A1933;stroke-width:1.9;stroke-linecap:round;stroke-linejoin:round;}
	.st2{fill:#5A1933;stroke:#5A1933;stroke-miterlimit:10;}
</style>
<title>employees icon</title>
<desc>Created with Sketch.</desc>
<g id="Group">
	<g transform="translate(0.656569, 0.092972)">
		<path id="Path" class="st0" d="M79,50.6V24.3c0-8.4,6.7-15.1,15-15.1c1.9,0,3.8,0.4,5.5,1.1c0.3,0.1,0.6,0.3,0.9,0.4
			c0.3,0.2,0.7,0.3,1,0.5c4.5,2.6,7.6,7.5,7.6,13.1v31.2"/>
		<path id="Shape" class="st0" d="M99.5,41.1v6c0,1.9,1,3.7,2.7,4.7l9.4,5.6c0.5,0.3,1.4,0.8,1.9,1.3c1.9,1.6,3,4.2,3,6.9
			c0,0.1,0,0.2,0,0.2v11.4H90.2 M83.6,53.1l0.9-0.6c2.3-1.4,3.8-3.9,3.8-6.7v-4.7"/>
		<path id="Path_1_" class="st1" d="M97.3,24.6c-0.6-0.5-1.4-0.5-1.9,0c-1.8,1.6-6.3,0.9-8.9,0.9l-0.1,0.7v2.8c0,0,0,0,0,0.1
			c0,0,0,0,0,0.1V35c0,4.8,3.3,10,7.5,10c4.1,0,7.5-5.2,7.5-10v-5.8c0,0,0,0,0-0.1c0,0,0,0,0-0.1l0-2.5
			C99.9,26.2,98.4,25.6,97.3,24.6L97.3,24.6z"/>
		<path id="Path_2_" class="st0" d="M109.4,77.2v-5.7"/>
		<path id="Path_3_" class="st1" d="M105.4,54.4c0,3.7-1.8,7.2-4.8,9.3c-3,2.1-6.8,2.7-10.3,1.4"/>
		<path id="Path_4_" class="st0" d="M7.8,55.5V24.3c0-8.4,6.6-15.1,14.9-15.1c1.9,0,3.8,0.4,5.5,1c0.3,0.1,0.6,0.3,0.9,0.4
			c0.3,0.2,0.7,0.3,1,0.5c4.5,2.6,7.5,7.5,7.5,13.1v26.3"/>
		<path id="Shape_1_" class="st0" d="M28.4,40.4v6.8c0,1.9,1,3.7,2.7,4.7l1.9,1.1 M26.2,77.2H0.3v-10c0-0.7,0-1.9,0.1-2.6
			c0.3-2.1,1.2-4.1,2.5-5.5c0.7-0.8,2.2-1.7,3.1-2.2l7.3-4.4c2.3-1.4,3.8-3.9,3.8-6.7v-5.5"/>
		<path id="Path_5_" class="st1" d="M26.1,23.9c-0.6-0.5-1.4-0.5-1.9,0c-1.8,1.6-6.3,0.9-8.9,0.9l-0.1,0.7v2.8c0,0,0,0,0,0.1
			c0,0,0,0,0,0.1v5.8c0,4.8,3.3,10,7.5,10c4.2,0,7.5-5.2,7.5-10v-5.8c0,0,0,0,0-0.1c0,0,0,0,0-0.1l0-2.5
			C28.7,25.5,27.3,24.9,26.1,23.9L26.1,23.9z"/>
		<path id="Path_6_" class="st0" d="M7.3,77.2v-5.7"/>
		<path id="Path_7_" class="st1" d="M26.1,65.4c-3.5,1-7.2,0.3-10.1-2c-2.8-2.3-4.5-5.8-4.3-9.4"/>
		<path id="Path_8_" class="st0" d="M67.9,35.4v8.8l16.7,9.5c3.4,1.9,5.5,5.5,5.5,9.4v14.1H26.5V63.4c0-4.1,2.2-7.8,5.8-9.9
			l16.5-9.3v-8.8"/>
		<path id="Path_9_" class="st0" d="M52.5,4.9c-4,0-7.3,3.2-7.3,7.1v6.3c0,0,0,0.1,0,0.1c0,0,0,0.1,0,0.1V27
			c0,7.1,5.8,12.7,13.1,12.7c7.3,0,13.1-5.7,13.1-12.7v-8.5c0,0,0-0.1,0-0.1c0,0,0-0.1,0-0.1V9.1c-0.6-4.4-2.8-7.5-7.3-7.5
			c-0.1,2.1-2.4,3.2-4.4,3.3H52.5z"/>
		<path id="Path_10_" class="st1" d="M45.6,21.3c1.6,0,6-4.1,6.4-5.5c4.5,7.7,15.3,0.1,19,6.4"/>
		<path id="Path_11_" class="st0" d="M58.4,78.7V56.8l-3.5-3.4L48,56.9c-1.2,0.6-2.5-0.5-2.4-1.8l3-11c1.1,3.4,3.6,6.7,6.2,9.5"/>
		<path id="Path_12_" class="st0" d="M58.3,78.6V56.9l3.6-3.4l7.2,3.4c1.3,0.6,2.7-0.5,2.5-1.8c0,0-3.4-10.4-3.1-10.9
			c-1.6,2.5-2.7,6.1-6.5,9.3"/>
		<path id="Path_13_" class="st0" d="M37.8,76.6V66.3"/>
		<path id="Path_14_" class="st0" d="M78.9,76.6V66.3"/>
		<ellipse id="Oval" class="st2" cx="65.8" cy="64" rx="1.9" ry="1.9"/>
		<ellipse id="Oval_1_" class="st2" cx="65.8" cy="71.6" rx="1.9" ry="1.9"/>
	</g>
</g>
</svg>
