<?xml version="1.0" encoding="utf-8"?>
<!-- Generator: Adobe Illustrator 22.0.0, SVG Export Plug-In . SVG Version: 6.00 Build 0)  -->
<svg version="1.1" id="Layer_1" xmlns="http://www.w3.org/2000/svg" xmlns:xlink="http://www.w3.org/1999/xlink" x="0px" y="0px"
	 viewBox="0 0 69 81" style="enable-background:new 0 0 69 81;" xml:space="preserve">
<style type="text/css">
	.st0{opacity:0.9;}
	.st1{stroke:#FFFFFF;stroke-width:2;}
</style>
<title>noun_Secured_1662344</title>
<desc>Created with Sketch.</desc>
<g id="Page-1" class="st0">
	<g id="STYLE-Guide" transform="translate(-1078.000000, -1110.000000)">
		<g id="noun_Secured_1662344" transform="translate(1079.000000, 1111.000000)">
			<g id="Group" transform="translate(0.000000, -0.000000)">
				<path id="Shape" class="st1" d="M33.1,0.3c-0.3,0-0.7,0.1-1,0.2L1.5,15.2C0.6,15.7,0,16.6,0,17.6v11.8c0,21.9,13.2,40.7,32.1,49
					c0.7,0.3,1.5,0.3,2.1,0c19-8.3,32.1-27.1,32.1-49V17.6c0-1-0.6-1.9-1.5-2.3L34.3,0.6C33.9,0.4,33.5,0.3,33.1,0.3z M33.2,5.8
					l28,13.4v10.1c0,19.4-11.4,35.9-28,43.7c-16.5-7.7-28-24.3-28-43.7V19.2L33.2,5.8z M48.7,26.4c-0.6,0.1-1.1,0.3-1.6,0.7
					L28.9,44.5l-7.8-7.7c-0.6-0.7-1.6-1-2.6-0.8c-0.9,0.2-1.7,1-1.9,1.9s0.1,1.9,0.8,2.6L27,50c1,1,2.6,1,3.7,0.1l20.1-19.1
					c0.8-0.8,1.1-2,0.6-3C50.9,26.9,49.8,26.3,48.7,26.4z"/>
			</g>
		</g>
	</g>
</g>
</svg>
