<?xml version="1.0" encoding="utf-8"?>
<!-- Generator: Adobe Illustrator 22.0.0, SVG Export Plug-In . SVG Version: 6.00 Build 0)  -->
<svg version="1.1" id="Layer_1" xmlns="http://www.w3.org/2000/svg" xmlns:xlink="http://www.w3.org/1999/xlink" x="0px" y="0px"
	 viewBox="0 0 73 57" style="enable-background:new 0 0 73 57;" xml:space="preserve">
<style type="text/css">
	.st0{stroke:#FFFFFF;}
</style>
<title>noun_Key_596098</title>
<desc>Created with Sketch.</desc>
<g id="Page-1">
	<g id="STYLE-Guide" transform="translate(-1184.000000, -1266.000000)">
		
			<g id="noun_Key_596098" transform="translate(1221.718727, 1292.673443) rotate(-30.000000) translate(-1221.718727, -1292.673443) translate(1181.218727, 1272.673443)">
			<g id="Group" transform="translate(0.380952, 0.455677)">
				<path id="Path" class="st0" d="M22.6,16.4c0.8,0.8,1.9,0.8,2.7,0c0.8-0.8,0.8-1.9,0-2.7c-1.5-1.5-3.7-2.3-5.8-2.3
					c-2.1,0-4.2,0.8-5.8,2.3s-2.3,3.6-2.3,5.7c0,2.1,0.8,4.2,2.3,5.7c1.5,1.5,3.7,2.3,5.8,2.3s4.2-0.8,5.8-2.3
					c0.8-0.8,0.8-1.9,0-2.7c-0.8-0.8-1.9-0.8-2.7,0c-1.7,1.7-4.4,1.7-6.2,0c-0.8-0.8-1.4-1.9-1.4-3c0-1.1,0.4-2.3,1.4-3
					C18,14.7,20.9,14.7,22.6,16.4z"/>
				<path id="Path_1_" class="st0" d="M78.7,18.3l-5.9-8.8c-0.4-0.6-1-0.8-1.6-0.8l-36.8,0c-1.2-1.6-2.5-2.9-4.1-4.1
					c0,0,0-0.2-0.2-0.2C22.7-1.1,12.5-0.4,6,6.3c-7.2,7.2-7.2,19,0,26.3c3.5,3.7,8.4,5.5,13.1,5.5c4.7,0,9.6-1.8,13.1-5.5
					c0.2-0.2,0.6-0.6,0.8-0.8c0.8-0.8,0.6-2-0.2-2.7c-0.8-0.8-2-0.6-2.7,0.2c-0.2,0.2-0.4,0.4-0.6,0.6c-5.7,5.7-15.1,5.7-20.8,0
					S3.1,14.7,8.8,9c2.2-2.2,4.5-3.3,7.2-3.9l0,0c5.9-1.2,12.1,1.4,15.3,6.3l0.2,0.2c0.4,0.6,1,1,1.8,1l36.8,0l4.5,6.9l-4.5,6.7
					c-0.4-0.2-0.8-0.6-1.4-1.2c-1-1.2-2.3-2.5-5.1-2.5c-2.7,0-4.1,1.6-5.1,2.5s-1.4,1.4-2.3,1.4s-1.4-0.4-2.3-1.4
					c-1-1.2-2.3-2.5-5.1-2.5c-2.7,0-4.1,1.6-5.1,2.5c-1,1-1.4,1.4-2.3,1.4c-1,0-1.4-0.4-2.3-1.4c-0.8-1-2-2-3.7-2.4
					c-1-0.2-2.2,0.4-2.3,1.6c-0.2,1,0.4,2.2,1.6,2.4c0.6,0.2,1,0.6,1.8,1.4c1,1.2,2.3,2.5,5.1,2.5c2.7,0,4.1-1.6,5.1-2.5
					s1.4-1.4,2.3-1.4s1.4,0.4,2.3,1.4c1,1.2,2.3,2.5,5.1,2.5c2.7,0,4.1-1.6,5.1-2.5c1-1,1.4-1.4,2.3-1.4c1,0,1.4,0.4,2.3,1.4
					c1,1.2,2.3,2.5,5.1,2.5c0.6,0,1.2-0.4,1.6-0.8l5.9-8.8C79.3,19.6,79.3,18.8,78.7,18.3z"/>
			</g>
		</g>
	</g>
</g>
</svg>
