<?xml version="1.0" encoding="UTF-8"?>
<svg width="69px" height="81px" viewBox="0 0 69 81" version="1.1" xmlns="http://www.w3.org/2000/svg" xmlns:xlink="http://www.w3.org/1999/xlink">
    <!-- Generator: Sketch 56.3 (81716) - https://sketch.com -->
    <title>noun_Secured_1662344</title>
    <desc>Created with Sketch.</desc>
    <g id="Page-1" stroke="none" stroke-width="1" fill="none" fill-rule="evenodd" opacity="0.9">
        <g id="STYLE-Guide" transform="translate(-1078.000000, -1110.000000)" fill="#3965ED" fill-rule="nonzero" stroke="#FFFFFF" stroke-width="2">
            <g id="noun_Secured_1662344" transform="translate(1079.000000, 1111.000000)">
                <g id="Group" transform="translate(0.000000, -0.000000)">
                    <path d="M33.06194,0.32705844 C32.7121953,0.340629978 32.3687243,0.423761326 32.0517899,0.571548179 L1.47427313,15.2409325 C0.575300025,15.676199 0.0034493336,16.5823932 2.06057393e-13,17.5771678 L2.06057393e-13,29.3398408 C2.06057393e-13,51.228214 13.168467,69.9952463 32.1336939,78.3192853 C32.8115495,78.6191182 33.585344,78.6191182 34.2631995,78.3192853 C53.2298714,69.9957679 66.3968935,51.2289963 66.3968935,29.3398408 L66.3968935,17.5771678 C66.3934441,16.5823932 65.8215934,15.676199 64.9226203,15.2409325 L34.3451036,0.571548179 C33.944977,0.383593862 33.5035442,0.299484714 33.06194,0.32705844 Z M33.1984467,5.81449481 L61.1550334,19.2342649 L61.1550334,29.3398408 C61.1550334,48.720988 49.7303052,65.2469731 33.1984467,72.9948421 C16.6677607,65.2464515 5.24186001,48.7198579 5.24186001,29.3398408 L5.24186001,19.2342649 L33.1984467,5.81449481 Z M48.6783146,26.3787984 C48.0913793,26.4419396 47.5430517,26.7003816 47.1221374,27.1122677 L28.8575314,44.4710391 L21.0766455,36.7288641 C20.4343879,35.9969919 19.4365149,35.6810226 18.4872925,35.9089642 C17.5380701,36.1369058 16.7948741,36.8709669 16.5587937,37.8137589 C16.3227134,38.7565509 16.6328896,39.7517642 17.3636613,40.3962102 L26.973738,49.9584755 C27.9767144,50.9605052 29.5995355,50.984606 30.6321194,50.0128066 L50.7259161,30.8882758 C51.5542099,30.1262282 51.7995897,28.922335 51.3351129,27.8994077 C50.8706361,26.8764804 49.8004981,26.2639906 48.6783146,26.3787984 Z" id="Shape"></path>
                </g>
            </g>
        </g>
    </g>
</svg>