<?xml version="1.0" encoding="utf-8"?>
<!-- Generator: Adobe Illustrator 22.0.0, SVG Export Plug-In . SVG Version: 6.00 Build 0)  -->
<svg version="1.1" id="Layer_1" xmlns="http://www.w3.org/2000/svg" xmlns:xlink="http://www.w3.org/1999/xlink" x="0px" y="0px"
	 viewBox="0 0 82 82" style="enable-background:new 0 0 82 82;" xml:space="preserve">
<style type="text/css">
	.st0{fill-opacity:0.1;}
	.st1{stroke:#FFFFFF;stroke-width:0.75;}
	.st2{stroke:#FFFFFF;stroke-width:1.25;}
</style>
<title>noun_private_2309115</title>
<desc>Created with Sketch.</desc>
<g id="Page-1">
	<g id="STYLE-Guide" transform="translate(-925.000000, -1253.000000)">
		<g id="noun_private_2309115" transform="translate(926.000000, 1254.000000)">
			<g id="Shape">
				<g>
					<path id="path-1" class="st0" d="M13.7,54.2H21c-0.6,1.9-0.9,3.9-0.9,5.9c0,11,9,19.9,19.9,19.9s19.9-8.9,19.9-19.9
						c0-2.1-0.3-4-0.9-5.9h7.3c7.6,0,13.7-6.1,13.7-13.7c0-5.1-2.8-9.7-7.2-12.1c0.3-1.4,0.4-2.8,0.4-4.2C73.2,10.9,62.3,0,49,0
						C39,0,30.1,6.1,26.5,15.3c-1.2-0.3-2.3-0.4-3.5-0.4c-7.6,0-13.8,5.7-14.6,13.1C3.3,30.1,0,35,0,40.5C0,48.1,6.1,54.2,13.7,54.2
						z M40,76.8c-9.2,0-16.7-7.5-16.7-16.7S30.8,43.5,40,43.5S56.7,51,56.7,60.1S49.2,76.8,40,76.8z M29.6,43.3v-8.2
						c0-5.7,4.7-10.4,10.4-10.4c2.8,0,5.4,1.1,7.3,3c2,2,3,4.6,3,7.3v8.2c-3-1.9-6.6-3-10.4-3C36.2,40.3,32.6,41.4,29.6,43.3z
						 M10.4,30.6c0.6-0.2,1.1-0.8,1.1-1.5C11.7,22.9,16.7,18,22.9,18c1.3,0,2.7,0.2,4,0.7c0.4,0.1,0.9,0.1,1.2-0.1
						c0.4-0.2,0.7-0.5,0.8-0.9C31.8,9,39.8,3.2,49,3.2c11.6,0,21,9.4,21,21c0,1.6-0.2,3.1-0.6,4.8c-0.2,0.8,0.2,1.5,0.9,1.8
						c3.9,1.6,6.5,5.5,6.5,9.7c0,5.8-4.7,10.5-10.5,10.5h-8.7c-1-2-2.4-3.8-4-5.3V35.1c0-3.6-1.4-7-4-9.6s-6-4-9.6-4
						c-7.5,0-13.6,6.1-13.6,13.6v10.7c-1.6,1.5-3,3.3-4,5.3h-8.7C7.9,51,3.2,46.3,3.2,40.5C3.2,36,6.1,32,10.4,30.6z"/>
				</g>
				<g>
					<path id="path-1_1_" class="st1" d="M13.7,54.2H21c-0.6,1.9-0.9,3.9-0.9,5.9c0,11,9,19.9,19.9,19.9s19.9-8.9,19.9-19.9
						c0-2.1-0.3-4-0.9-5.9h7.3c7.6,0,13.7-6.1,13.7-13.7c0-5.1-2.8-9.7-7.2-12.1c0.3-1.4,0.4-2.8,0.4-4.2C73.2,10.9,62.3,0,49,0
						C39,0,30.1,6.1,26.5,15.3c-1.2-0.3-2.3-0.4-3.5-0.4c-7.6,0-13.8,5.7-14.6,13.1C3.3,30.1,0,35,0,40.5C0,48.1,6.1,54.2,13.7,54.2
						z M40,76.8c-9.2,0-16.7-7.5-16.7-16.7S30.8,43.5,40,43.5S56.7,51,56.7,60.1S49.2,76.8,40,76.8z M29.6,43.3v-8.2
						c0-5.7,4.7-10.4,10.4-10.4c2.8,0,5.4,1.1,7.3,3c2,2,3,4.6,3,7.3v8.2c-3-1.9-6.6-3-10.4-3C36.2,40.3,32.6,41.4,29.6,43.3z
						 M10.4,30.6c0.6-0.2,1.1-0.8,1.1-1.5C11.7,22.9,16.7,18,22.9,18c1.3,0,2.7,0.2,4,0.7c0.4,0.1,0.9,0.1,1.2-0.1
						c0.4-0.2,0.7-0.5,0.8-0.9C31.8,9,39.8,3.2,49,3.2c11.6,0,21,9.4,21,21c0,1.6-0.2,3.1-0.6,4.8c-0.2,0.8,0.2,1.5,0.9,1.8
						c3.9,1.6,6.5,5.5,6.5,9.7c0,5.8-4.7,10.5-10.5,10.5h-8.7c-1-2-2.4-3.8-4-5.3V35.1c0-3.6-1.4-7-4-9.6s-6-4-9.6-4
						c-7.5,0-13.6,6.1-13.6,13.6v10.7c-1.6,1.5-3,3.3-4,5.3h-8.7C7.9,51,3.2,46.3,3.2,40.5C3.2,36,6.1,32,10.4,30.6z"/>
				</g>
			</g>
			<path id="Shape_1_" class="st2" d="M40,53.6c-3.5,0-6.4,2.8-6.4,6.3c0,2.9,2,5.3,4.7,6.1v3.3c0,0.9,0.7,1.6,1.6,1.6
				c0.9,0,1.6-0.7,1.6-1.6V66c2.7-0.7,4.7-3.2,4.7-6.1C46.4,56.5,43.5,53.6,40,53.6z M40,63c-1.7,0-3.1-1.4-3.1-3c0-1.7,1.4-3,3.1-3
				c1.7,0,3.1,1.4,3.1,3S41.7,63,40,63z"/>
		</g>
	</g>
</g>
</svg>
