<?xml version="1.0" encoding="UTF-8"?>
<svg width="82px" height="82px" viewBox="0 0 82 82" version="1.1" xmlns="http://www.w3.org/2000/svg" xmlns:xlink="http://www.w3.org/1999/xlink">
    <!-- Generator: Sketch 56.3 (81716) - https://sketch.com -->
    <title>MailICON</title>
    <desc>Created with Sketch.</desc>
    <g id="Page-1" stroke="none" stroke-width="1" fill="none" fill-rule="evenodd">
        <g id="STYLE-Guide" transform="translate(-1056.000000, -1248.000000)" fill="#3965ED" fill-rule="nonzero">
            <g id="MailICON" transform="translate(1057.000000, 1249.000000)">
                <path d="M79.8413333,34.0613333 C79.7669948,33.9098455 79.6642435,33.7740509 79.5386667,33.6613333 L79.5386667,33.6613333 L70.6666667,26.0093333 L70.6666667,18.6666667 C70.6666667,18.6373333 70.652,18.612 70.6493333,18.5826667 C70.6426881,18.465841 70.6198015,18.3505106 70.5813333,18.24 C70.5666667,18.1973333 70.556,18.156 70.5373333,18.1146667 C70.4724377,17.9695924 70.3821281,17.8372888 70.2706667,17.724 L59.604,7.05733333 C59.4904608,6.94556033 59.3576611,6.85522045 59.212,6.79066667 C59.172,6.77333333 59.1333333,6.76266667 59.092,6.748 C58.9780868,6.70832117 58.8591274,6.68497819 58.7386667,6.67866667 C58.7173333,6.68 58.6933333,6.66666667 58.6666667,6.66666667 L48.228,6.66666667 L40.8706667,0.324 C40.3703654,-0.10736372 39.6296346,-0.10736372 39.1293333,0.324 L31.772,6.66666667 L10.6666667,6.66666667 C9.930287,6.66666667 9.33333333,7.26362033 9.33333333,8 L9.33333333,26.0093333 L0.462666667,33.6573333 L0.462666667,33.6573333 C0.337089819,33.7700509 0.234338564,33.9058455 0.16,34.0573333 C0.141333333,34.0946667 0.125333333,34.1293333 0.109333333,34.168 C0.0408517887,34.325545 0.00371574482,34.4949216 0,34.6666667 L0,78.6666667 C0,78.7026667 0.0173333333,78.732 0.02,78.7666667 C0.0217033886,78.8564804 0.0328763217,78.9458638 0.0533333333,79.0333333 C0.0648766178,79.0601958 0.0777822659,79.0864521 0.092,79.112 C0.113256276,79.1671761 0.138662316,79.2206625 0.168,79.272 C0.214103345,79.362505 0.270958689,79.4471165 0.337333333,79.524 C0.374489781,79.5671435 0.414111557,79.6081008 0.456,79.6466667 C0.536961477,79.7172781 0.626568151,79.7773145 0.722666667,79.8253333 C0.76538813,79.8523955 0.809940072,79.8764535 0.856,79.8973333 C1.00743552,79.9606444 1.16925925,79.99545 1.33333333,80 L78.6666667,80 C78.8303213,79.9975687 78.9921298,79.9650262 79.144,79.904 C79.1900599,79.8831202 79.2346119,79.8590621 79.2773333,79.832 C79.3734318,79.7839812 79.4630385,79.7239447 79.544,79.6533333 C79.5858884,79.6147675 79.6255102,79.5738102 79.6626667,79.5306667 C79.7290413,79.4537831 79.7858967,79.3691716 79.832,79.2786667 C79.8613377,79.2273292 79.8867437,79.1738428 79.908,79.1186667 C79.9222177,79.0931188 79.9351234,79.0668625 79.9466667,79.04 C79.9671237,78.9525305 79.9782966,78.863147 79.98,78.7733333 C79.98,78.7386667 80,78.7093333 80,78.6733333 L80,34.6666667 C79.9961902,34.4963615 79.9595185,34.3283957 79.892,34.172 C79.876,34.1333333 79.8666667,34.0986667 79.8413333,34.0613333 Z M77.3333333,37.576 L77.3333333,76.2426667 L51.532,59.8186667 L77.3333333,37.576 Z M76.6253333,34.6666667 L70.6666667,39.8026667 L70.6666667,29.536 L76.6253333,34.6666667 Z M66.1146667,17.3333333 L60,17.3333333 L60,11.2186667 L66.1146667,17.3333333 Z M40,3.09333333 L44.144,6.66666667 L35.856,6.66666667 L40,3.09333333 Z M57.3333333,9.33333333 L57.3333333,18.6666667 C57.3333333,19.4030463 57.930287,20 58.6666667,20 L68,20 L68,42.1013333 L48.7853333,58.6666667 L31.2146667,58.6666667 L12,42.1013333 L12,9.33333333 L57.3333333,9.33333333 Z M28.468,59.8186667 L2.66666667,76.2373333 L2.66666667,37.5706667 L28.468,59.8186667 Z M9.33333333,39.8026667 L3.37466667,34.6666667 L9.33333333,29.5306667 L9.33333333,39.8026667 Z M5.912,77.3333333 L31.0546667,61.3333333 L48.9453333,61.3333333 L74.088,77.3333333 L5.912,77.3333333 Z" id="Shape" stroke="#FFFFFF" stroke-width="0.07"></path>
                <rect id="Rectangle" x="20" y="26.6666667" width="22.6666667" height="2.66666667"></rect>
                <rect id="Rectangle" x="20" y="34.6666667" width="29.3333333" height="2.66666667"></rect>
                <rect id="Rectangle" x="20" y="42.6666667" width="13.3333333" height="2.66666667"></rect>
                <rect id="Rectangle" x="45.3333333" y="26.6666667" width="14.6666667" height="2.66666667"></rect>
                <rect id="Rectangle" x="52" y="34.6666667" width="8" height="2.66666667"></rect>
                <rect id="Rectangle" x="20" y="18.6666667" width="10.6666667" height="2.66666667"></rect>
                <rect id="Rectangle" x="36" y="42.6666667" width="24" height="2.66666667"></rect>
                <rect id="Rectangle" x="29.3333333" y="50.6666667" width="21.3333333" height="2.66666667"></rect>
            </g>
        </g>
    </g>
</svg>