<?xml version="1.0" encoding="UTF-8"?>
<svg width="64px" height="46px" viewBox="0 0 64 46" version="1.1" xmlns="http://www.w3.org/2000/svg" xmlns:xlink="http://www.w3.org/1999/xlink">
    <!-- Generator: Sketch 56.3 (81716) - https://sketch.com -->
    <title>left-quote copy</title>
    <desc>Created with Sketch.</desc>
    <g id="Hi-Fis" stroke="none" stroke-width="1" fill="none" fill-rule="evenodd" opacity="0.3">
        <g id="STYLE-TILE-1" transform="translate(-634.000000, -991.000000)" fill="#FFFFFF" fill-rule="nonzero">
            <g id="Group-6" transform="translate(-42.000000, 897.000000)">
                <g id="Quote-1-Copy" transform="translate(585.000000, 0.000000)">
                    <g id="left-quote-copy" transform="translate(91.000000, 94.000000)">
                        <path d="M50.6292648,17.225668 C50.5003662,15.8321686 50.5989647,12.0440674 54.2278633,6.7764674 C54.5023651,6.3789674 54.4525642,5.8428679 54.1116676,5.5020676 C52.632164,4.0225678 51.7161636,3.0889674 51.0736694,2.435668 C50.2288665,1.5742674 49.8431663,1.1817675 49.2786674,0.6699677 C48.9017639,0.3311673 48.3314666,0.3252678 47.9505653,0.6573678 C41.6253662,6.1612674 34.5999679,17.5342675 35.6165695,31.4678689 C36.212265,39.6494676 42.1800651,45.587967 49.8060646,45.587967 C57.632164,45.587967 63.9993629,39.2217675 63.9993629,31.3955689 C63.9993629,23.845768 58.0736694,17.6543674 50.6292648,17.225668 Z M49.8060646,43.5879669 C43.257164,43.5879669 38.1292648,38.4297676 37.6107635,31.3233681 C37.6107635,31.3233681 37.6107635,31.3233681 37.6107635,31.3223686 C36.4671669,15.6514683 45.782566,5.4727669 48.5970649,2.7774677 C48.8714637,3.0479679 49.1849632,3.3662672 49.6468658,3.8369674 C50.2034645,4.4033679 50.9652633,5.1787671 52.1175651,6.3350677 C47.712265,13.1221675 48.5433654,17.9580669 48.907566,18.6514682 C49.0804633,18.9805679 49.4349632,19.2022685 49.8060645,19.2022685 C56.5296668,19.2022685 61.9993628,24.6719665 61.9993628,31.3955687 C61.9993628,38.1182671 56.5296669,43.5879669 49.8060646,43.5879669 Z" id="Shape"></path>
                        <path d="M15.1136675,17.225668 C14.9837675,15.8360672 15.0794678,12.0508671 18.7122669,6.7764674 C18.9857673,6.3789674 18.9368667,5.8428679 18.5960674,5.5020676 C17.1194668,4.0254679 16.2044677,3.0928679 15.5628671,2.4395676 C14.7152671,1.5762673 14.3284673,1.1826678 13.7640676,0.6699677 C13.3870677,0.3311673 12.8167676,0.3262673 12.4359674,0.6563674 C6.1107678,6.1602679 -0.9156323,17.5313674 0.0989675,31.4678679 L0.0989675,31.4688674 C0.6966675,39.6494666 6.6653676,45.5879661 14.2913675,45.5879661 C22.117567,45.5879661 28.4847679,39.2217666 28.4847679,31.395568 C28.4847679,23.8448677 22.5589676,17.6524677 15.1136675,17.225668 Z M14.2913675,43.5879669 C7.7435674,43.5879669 2.612668,38.4297676 2.0931673,31.3223686 L2.0931673,31.3233681 C0.9525673,15.6485672 10.2679672,5.4717675 13.0823679,2.7774678 C13.3577681,3.047968 13.6722679,3.3682681 14.1351681,3.8399678 C14.6907673,4.4063674 15.4515677,5.1807681 16.6019669,6.3350678 C12.1966677,13.1231671 13.0277672,17.958067 13.3919678,18.650467 C13.564868,18.9795686 13.9202681,19.2022687 14.2913676,19.2022687 C21.0150681,19.2022687 26.484768,24.6719667 26.484768,31.3955689 C26.484768,38.1182671 21.0150681,43.5879669 14.2913675,43.5879669 Z" id="Shape"></path>
                    </g>
                </g>
            </g>
        </g>
    </g>
</svg>