<?xml version="1.0" encoding="UTF-8"?>
<svg width="80px" height="80px" viewBox="0 0 80 80" version="1.1" xmlns="http://www.w3.org/2000/svg" xmlns:xlink="http://www.w3.org/1999/xlink">
    <!-- Generator: Sketch 56.3 (81716) - https://sketch.com -->
    <title>facebook-logo</title>
    <desc>Created with Sketch.</desc>
    <g id="Page-1" stroke="none" stroke-width="1" fill="none" fill-rule="evenodd" fill-opacity="0.85">
        <g id="STYLE-Guide" transform="translate(-938.000000, -1403.000000)" fill="#000000" fill-rule="nonzero">
            <g id="facebook-logo" transform="translate(938.000000, 1403.000000)">
                <path d="M80,13.3342222 C80,6.328 73.6746667,0 66.6666667,0 L13.3333333,0 C6.32533333,0 0,6.328 0,13.3342222 L0,66.6657778 C0,73.672 6.32533333,80 13.3342222,80 L40,80 L40,49.7777778 L30.2222222,49.7777778 L30.2222222,36.4444444 L40,36.4444444 L40,31.2497778 C40,22.2906667 46.7271111,14.2222222 55,14.2222222 L65.7777778,14.2222222 L65.7777778,27.5555556 L55,27.5555556 C53.8204444,27.5555556 52.4444444,28.9875556 52.4444444,31.1324444 L52.4444444,36.4444444 L65.7777778,36.4444444 L65.7777778,49.7777778 L52.4444444,49.7777778 L52.4444444,80 L66.6666667,80 C73.6746667,80 80,73.672 80,66.6657778 L80,13.3342222 Z" id="Facebook__x28_alt_x29_"></path>
            </g>
        </g>
    </g>
</svg>