<svg id="Layer_1" data-name="Layer 1" xmlns="http://www.w3.org/2000/svg" viewBox="0 0 836.87 898.92"><defs><style>.cls-1{fill:#231f20;}</style></defs><title>Vesta_ALL</title><path class="cls-1" d="M836.87,0V13c0,89.91-36.8,327.5-101.12,463.39q10-25.75,18.56-52.17A1066.24,1066.24,0,0,0,786,300.71c8.2-41.9,14.21-84.62,18.33-127.93s6.34-87.11,7-131.36L811.55,26H25.33l.24,15.51q.93,61,6.17,119.68T47.32,276.36A1081.48,1081.48,0,0,0,73.66,387.45Q87,432.62,104.58,476.36C34.3,316.85,14.9,167.47,0,13V0ZM282.79,273.61c37-40.44,3.19-71.68,7.22-106.22C250.74,210.57,283.76,243.1,282.79,273.61Zm401,340.79c-48.13,75-200.13,218.19-265.23,284.49v0s-.11,0-.14,0-.13,0-.15,0v0C353.2,832.6,201.19,689.37,153.07,614.4c1.49-.24,3-.46,4.52-.69a192.37,192.37,0,0,0,48.41-14c-27.61-59.41-32.73-147.37,44.93-240.94,11.82-14.9,25.09-25.23,22.08-41.69,31.59,26.17,10,71.08,33.24,68.71-5.81-35.82-29.58-95,45.06-168.09,63.5-66,89.66-129,72.47-173.09C579.9,174.22,477.77,350,536.05,372.13c-14-41.13-.42-70.79,31.81-84.23-4.52,23.5,29,62.55,48.2,95.89,44.11,76.73,42.63,157,8.6,213.15a194.13,194.13,0,0,0,54.61,16.77C680.8,613.94,682.3,614.16,683.81,614.4ZM576.4,598.11l-2.7-.4c-11.19-1.66-29.18,1.08-32.51-10-11.27-37.43,21.14-81.2-5.12-126.88-11.41-19.84-31.38-43.08-28.69-57.07-19.18,8-27.27,25.65-18.93,50.14C453.76,440.75,514.55,336.1,421.62,259c10.23,26.22-5.34,63.75-43.14,103-44.43,43.53-30.28,78.74-26.82,100.05-13.85,1.42-1-25.31-19.79-40.89,1.8,9.79-6.1,15.95-13.14,24.81C272.5,501.68,305.84,553,292,589.4c-3.6,9.48-18.93,6.84-28.81,8.31l-2.69.4C289.12,642.74,379.6,742.51,418.35,782h0s.06,0,.09,0,.07,0,.08,0h0C457.27,742.5,547.75,642.74,576.4,598.11ZM468.27,504.47l-.07-.08Zm33.88-47.39-.11-.14A1.34,1.34,0,0,1,502.15,457.08Z"/></svg>