<?xml version="1.0" encoding="UTF-8"?>
<svg width="417px" height="72px" viewBox="0 0 417 72" version="1.1" xmlns="http://www.w3.org/2000/svg" xmlns:xlink="http://www.w3.org/1999/xlink">
    <!-- Generator: Sketch 57.1 (83088) - https://sketch.com -->
    <title>Vesta Name Group</title>
    <desc>Created with Sketch.</desc>
    <g id="Hi-Fis" stroke="none" stroke-width="1" fill="none" fill-rule="evenodd">
        <g id="Homepage-HiFI" transform="translate(-229.000000, -279.000000)" fill-rule="nonzero">
            <g id="Section__Hero" transform="translate(-44.000000, -843.000000)">
                <g id="Text__homepae__Hero" transform="translate(272.000000, 1122.000000)">
                    <g id="Vesta-Name-Group" transform="translate(1.000000, 0.000000)">
                        <polygon id="Path" fill="#444B4F" points="14.1894242 5 33.8061397 47.4803449 52.9413539 5 67 5 36.3444237 72 31.6720788 72 0 5"></polygon>
                        <polygon id="Path" fill="#2E3438" points="148.292031 5 148.292031 15.1171032 116.541411 15.1171032 116.541411 32.7130628 146.93609 32.7130628 146.93609 42.8531073 116.541411 42.8531073 116.541411 61.8886321 149 61.8886321 149 72 103 72 103 5"></polygon>
                        <path d="M208.577829,0 C215.380308,0.0113223471 222.070133,1.76605397 228.028522,5.10188903 L228.028522,17.1767608 C220.874108,12.7647499 214.522741,10.5587444 208.97442,10.5587444 C205.612279,10.5587444 202.982154,11.2225515 201.084045,12.5501657 C199.28573,13.6889896 198.207175,15.7033507 198.242799,17.8566116 C198.242799,20.5038182 200.006739,22.9504788 203.534619,25.1965935 C204.525108,25.8704279 208.33514,27.747538 214.964712,30.8279238 C220.639311,33.547327 224.731493,36.5555162 227.24126,39.8524917 C229.751027,43.1494672 231.003937,47.1403316 231,51.8250851 C231,57.8414637 228.86511,62.7107194 224.59535,66.4328523 C220.32559,70.1549851 214.789107,72.0080297 207.985903,71.9919861 C204.134438,72.070646 200.292704,71.5698791 196.585406,70.5059406 C192.825955,69.2476306 189.228884,67.5347229 185.871543,65.4040515 L185.871543,52.0236256 C193.258781,58.2646156 200.219832,61.3831052 206.754697,61.3790943 C210.014237,61.3790943 212.652254,60.6591343 214.668749,59.2192143 C216.58095,57.965463 217.722038,55.7982119 217.687572,53.4856056 C217.687572,50.2327502 215.939417,47.5835382 212.443107,45.5379695 C209.534776,43.9336018 205.785911,42.0043498 201.196511,39.7502133 C195.758683,37.235367 191.69215,34.3013797 188.996913,30.9482514 C186.363857,27.684629 184.948879,23.5809823 185.001412,19.3607063 C185.001412,13.4566334 187.171808,8.75383083 191.512599,5.2522985 C195.853391,1.75076617 201.541801,0 208.577829,0 Z" id="Path" fill="#2E3438"></path>
                        <polygon id="Path" fill="#2E3438" points="324 5 324 15.1205686 299.634882 15.1205686 299.634882 72 286.370995 72 286.370995 15.1320432 262 15.1320432 262 5"></polygon>
                        <polygon id="Path" fill="#2E3438" points="402.83184 72 383.211643 29.5268363 364.073032 72 350 72 380.661017 5 385.334191 5 417 71.9886738"></polygon>
                    </g>
                </g>
            </g>
        </g>
    </g>
</svg>